   Video
      Format : WMV2
      Codec ID : WMV2
      Codec ID/Info : Windows Media Video 8
      Duration : 1h 28mn
      Bit rate : 512 Kbps
      Width : 480 pixels
      Height : 272 pixels
      Display aspect ratio : 16:9
      Frame rate : 25.000 fps
      Resolution : 24 bits
      Bits/(Pixel*Frame) : 0.157
      Stream size : 323 MiB (86%)
   Audio #1
      ID : 1
      Format : MPEG Audio
      Format version : Version 2
      Format profile : Layer 3
      Codec ID : 55
      Codec ID/Hint : MP3
      Duration : 1h 28mn
      Bit rate mode : Constant
      Bit rate : 64.0 Kbps
      Channel(s) : 2 channels
      Sampling rate : 22.05 KHz
      Resolution : 16 bits
      Video delay : 20ms
      Stream size : 40.4 MiB (11%)
      Alignment : Aligned on interleaves
      Interleave, duration : 26 ms (0.65 video frame)